# xmcd
#
# Track frame offsets: 
#        150
#        6887
#        25210
#        40582
#        55429
#        77578
#        95850
#        107351
#        123720
#        149952
#        167312
#        184091
#        197903
#        209644
#        226689
#
# Disc length: 3233 seconds
#
# Revision: 3
# Processed by: cddbd v1.5.2PL0 Copyright (c) Steve Scherf et al.
# Submitted via: ExactAudioCopy v0.99pb4
#
DISCID=cf0c9f0f
DTITLE=Cristina Branco - Ulisses
DYEAR=2004
DGENRE=Folk
TTITLE0=Sonhei que estava em Portugal
TTITLE1=Alfonsina y el mar
TTITLE2=Sete Pedaços de vento
TTITLE3=Redondo vocábulo
TTITLE4=A case of you
TTITLE5=Navio triste
TTITLE6=Oh!Como se me alonga de ano en ano
TTITLE7=Choro
TTITLE8=Liberté
TTITLE9=Cristal
TTITLE10=Porque me olhas assim
TTITLE11=E por vezes
TTITLE12=Circe
TTITLE13=Gaivota
TTITLE14=Fundos
EXTD=YEAR: 2004
EXTT0=
EXTT1=
EXTT2=
EXTT3=
EXTT4=
EXTT5=
EXTT6=
EXTT7=
EXTT8=
EXTT9=
EXTT10=
EXTT11=
EXTT12=
EXTT13=
EXTT14=
PLAYORDER=
